<svg width="357" height="357" viewBox="0 0 357 357" fill="none" xmlns="http://www.w3.org/2000/svg">
<path d="M307 2.8332e-05C334.614 2.95391e-05 357 22.3858 357 50L357 307C357 334.614 334.614 357 307 357L50 357C22.3857 357 -1.46265e-05 334.614 -1.34194e-05 307L0 1.49126e-05L307 2.8332e-05Z" fill="#509EA3"/>
<g filter="url(#filter0_i)">
<path fill-rule="evenodd" clip-rule="evenodd" d="M179.209 282.025C238.97 282.025 287.417 233.579 287.417 173.817C287.417 114.055 238.97 65.6083 179.209 65.6083C119.447 65.6083 71 114.055 71 173.817C71 233.579 119.447 282.025 179.209 282.025ZM179.209 220.791C205.152 220.791 226.183 199.76 226.183 173.817C226.183 147.874 205.152 126.843 179.209 126.843C153.265 126.843 132.234 147.874 132.234 173.817C132.234 199.76 153.265 220.791 179.209 220.791Z" fill="#358085"/>
</g>
<mask id="mask0" mask-type="alpha" maskUnits="userSpaceOnUse" x="71" y="65" width="217" height="218">
<path fill-rule="evenodd" clip-rule="evenodd" d="M179.209 282.025C238.97 282.025 287.417 233.579 287.417 173.817C287.417 114.055 238.97 65.6083 179.209 65.6083C119.447 65.6083 71 114.055 71 173.817C71 233.579 119.447 282.025 179.209 282.025ZM179.209 220.791C205.152 220.791 226.183 199.76 226.183 173.817C226.183 147.874 205.152 126.843 179.209 126.843C153.265 126.843 132.234 147.874 132.234 173.817C132.234 199.76 153.265 220.791 179.209 220.791Z" fill="white"/>
</mask>
<g mask="url(#mask0)">
<path d="M202.267 153.685H150.594C150.594 153.685 146.922 119.836 137.015 101.069C125.336 78.9448 92.8098 54.7036 92.8098 54.7036H265.608C265.608 54.7036 236.4 80.2613 223.585 101.069C211.959 119.947 202.267 153.685 202.267 153.685Z" fill="#1E696F"/>
<path d="M189.908 208.214L215.745 163.464C215.745 163.464 247.45 175.401 268.688 175.999C293.298 176.693 330.357 162.912 330.357 162.912L243.958 312.56C243.958 312.56 237.257 274.5 225.767 253.112C215.148 233.344 189.908 208.214 189.908 208.214Z" fill="#1E696F"/>
<path d="M144.772 168.276L170.608 213.026C170.608 213.026 144.546 230.496 133.378 246.565C118.033 268.641 113.78 312.56 113.78 312.56L27.381 162.912C27.381 162.912 61.4516 177.708 84.6365 178.909C108.453 180.143 144.772 168.276 144.772 168.276Z" fill="#1E696F"/>
</g>
<defs>
<filter id="filter0_i" x="71" y="65.6083" width="216.417" height="221.417" filterUnits="userSpaceOnUse" color-interpolation-filters="sRGB">
<feFlood flood-opacity="0" result="BackgroundImageFix"/>
<feBlend mode="normal" in="SourceGraphic" in2="BackgroundImageFix" result="shape"/>
<feColorMatrix in="SourceAlpha" type="matrix" values="0 0 0 0 0 0 0 0 0 0 0 0 0 0 0 0 0 0 127 0" result="hardAlpha"/>
<feOffset dy="5"/>
<feGaussianBlur stdDeviation="5.5"/>
<feComposite in2="hardAlpha" operator="arithmetic" k2="-1" k3="1"/>
<feColorMatrix type="matrix" values="0 0 0 0 0 0 0 0 0 0 0 0 0 0 0 0 0 0 0.25 0"/>
<feBlend mode="normal" in2="shape" result="effect1_innerShadow"/>
</filter>
</defs>
</svg>
