<svg width="357" height="357" viewBox="0 0 357 357" fill="none" xmlns="http://www.w3.org/2000/svg">
<path d="M50 357C22.3858 357 -9.78513e-07 334.614 -2.18557e-06 307L-1.5605e-05 0L307 -1.34194e-05C334.614 -1.46265e-05 357 22.3858 357 50L357 307C357 334.614 334.614 357 307 357L50 357Z" fill="#DF5F05"/>
<g clip-path="url(#clip0)">
<g filter="url(#filter0_i)">
<path d="M240.376 215.334C238.744 214.78 236.996 214.489 235.189 214.489C231.983 214.489 228.982 215.421 226.447 217.024C223.358 218.976 220.968 221.949 219.773 225.446C219.19 227.136 218.87 228.943 218.87 230.808C218.87 233.023 219.307 235.15 220.123 237.074L198.063 215.042L201.297 210.962C208 209.097 213.071 203.298 213.857 196.187C213.945 195.546 213.974 194.905 213.974 194.235C213.974 191.933 213.508 189.718 212.692 187.707C212.692 187.678 212.663 187.649 212.663 187.62L240.376 215.334Z" stroke="#D85D07" stroke-width="5" stroke-miterlimit="10" stroke-linecap="round" stroke-linejoin="round"/>
</g>
<g filter="url(#filter1_i)">
<path d="M273.131 269.101C267.361 274.871 257.89 274.871 252.12 269.101L228.894 245.874C230.818 246.69 232.945 247.128 235.16 247.128C244.164 247.128 251.479 239.813 251.479 230.808C251.479 229.001 251.187 227.253 250.634 225.621L273.102 248.089C278.93 253.859 278.93 263.33 273.131 269.101Z" stroke="#D85D07" stroke-width="5" stroke-miterlimit="10" stroke-linecap="round" stroke-linejoin="round"/>
</g>
<g filter="url(#filter2_i)">
<path d="M237.054 175.293C231.284 181.063 221.813 181.063 216.043 175.293L192.031 151.28L181.277 154.981L167.056 140.759C166.153 138.923 164.871 137.291 163.297 135.951C162.394 135.193 161.403 134.552 160.325 134.028C159.917 133.824 159.509 133.649 159.101 133.474C157.789 132.978 156.478 132.687 155.137 132.541L157.906 131.58L168.659 127.879L181.394 123.478C180.316 124.906 179.471 126.48 178.888 128.199C178.276 129.977 177.926 131.9 177.926 133.911C177.926 137.933 179.296 141.634 181.598 144.577C182.822 146.151 184.337 147.52 186.057 148.599C188.738 150.289 191.914 151.25 195.294 151.25C204.882 151.25 212.634 143.499 212.634 133.911C212.634 132.279 212.4 130.676 211.963 129.161L237.083 154.252C242.853 160.051 242.853 169.522 237.054 175.293Z" stroke="#D85D07" stroke-width="5" stroke-miterlimit="10"/>
</g>
<g filter="url(#filter3_i)">
<path d="M200.015 117.242C199.928 117.213 199.84 117.184 199.782 117.184L199.928 117.125L200.015 117.242Z" stroke="#D85D07" stroke-width="5" stroke-miterlimit="10"/>
</g>
<g filter="url(#filter4_i)">
<path d="M140.042 141.721C140.013 141.838 139.955 141.925 139.926 142.042L136.982 149.735L136.166 151.862L135.991 151.688L138.935 143.994C139.226 143.178 139.605 142.42 140.042 141.721Z" stroke="#D85D07" stroke-width="5" stroke-miterlimit="10"/>
</g>
<g filter="url(#filter5_i)">
<path d="M206.222 180.247C203.541 178.556 200.044 176.925 196.635 176.925C193.225 176.925 190.049 177.915 187.368 179.606C184.104 181.675 181.569 184.822 180.257 188.552C180.053 189.135 179.879 189.747 179.733 190.359L177.489 193.186L159.13 174.826L159.917 172.757L159.946 172.699L164.55 160.722L165.279 158.857L167.668 152.649C169.213 148.628 168.863 144.344 167.085 140.73L181.307 154.952L206.222 180.247Z" stroke="#D85D07" stroke-width="5" stroke-miterlimit="10" stroke-linecap="round" stroke-linejoin="round"/>
</g>
<g filter="url(#filter6_i)">
<path d="M213.886 196.187C213.974 195.546 214.003 194.905 214.003 194.235C214.003 191.933 213.537 189.718 212.721 187.707C213.915 190.359 214.323 193.331 213.886 196.187Z" stroke="#D85D07" stroke-width="5" stroke-miterlimit="10"/>
</g>
<g filter="url(#filter7_i)">
<path d="M209.982 267.818C204.503 273.88 195.061 274.346 189 268.867L169.388 251.149L160.908 243.456C163.589 245.146 166.765 246.108 170.145 246.108C179.733 246.108 187.485 238.356 187.485 228.768C187.485 219.18 179.733 211.429 170.145 211.429C166.736 211.429 163.559 212.419 160.878 214.11L165.862 207.844L177.518 193.186L179.762 190.359C179.471 191.612 179.325 192.923 179.325 194.235C179.325 194.497 179.325 194.73 179.354 194.993C179.529 198.723 180.84 202.132 182.997 204.901C184.221 206.474 185.736 207.844 187.455 208.922C189.554 210.234 191.972 211.137 194.537 211.458C195.236 211.545 195.965 211.603 196.693 211.603C198.296 211.603 199.87 211.37 201.356 210.962L198.121 215.042L187.922 227.836L208.933 246.836C214.994 252.315 215.46 261.757 209.982 267.818Z" stroke="#D85D07" stroke-width="5" stroke-miterlimit="10"/>
</g>
<g filter="url(#filter8_i)">
<path d="M187.484 228.768C187.484 238.356 179.733 246.108 170.145 246.108C166.765 246.108 163.588 245.117 160.907 243.456L156.449 239.434C154.147 236.491 152.777 232.79 152.777 228.768C152.777 226.757 153.127 224.863 153.739 223.056L160.849 214.11C163.53 212.419 166.706 211.429 170.116 211.429C179.704 211.429 187.484 219.21 187.484 228.768Z" stroke="#D85D07" stroke-width="5" stroke-miterlimit="10"/>
</g>
<g filter="url(#filter9_i)">
<path d="M179.645 228.972C179.645 234.538 175.157 239.026 169.591 239.026C167.61 239.026 165.774 238.472 164.229 237.481C163.239 236.87 162.364 236.054 161.665 235.15C160.324 233.431 159.538 231.303 159.538 228.972C159.538 227.806 159.742 226.699 160.091 225.65C160.849 223.493 162.306 221.657 164.2 220.463C165.745 219.472 167.61 218.918 169.591 218.918C175.128 218.918 179.645 223.406 179.645 228.972Z" stroke="#D85D07" stroke-width="5" stroke-miterlimit="10"/>
</g>
<g filter="url(#filter10_i)">
<path d="M214.003 194.235C214.003 194.905 213.974 195.546 213.887 196.187C213.1 203.269 208.029 209.097 201.327 210.962C199.84 211.37 198.267 211.603 196.664 211.603C195.935 211.603 195.207 211.545 194.507 211.458C191.943 211.137 189.524 210.263 187.426 208.922C185.736 207.844 184.221 206.474 182.967 204.901C180.811 202.132 179.5 198.723 179.325 194.993C179.325 194.73 179.296 194.497 179.296 194.235C179.296 192.894 179.441 191.583 179.733 190.359C179.878 189.747 180.053 189.135 180.257 188.552C181.54 184.822 184.075 181.675 187.368 179.606C190.049 177.915 193.225 176.925 196.635 176.925C200.044 176.925 203.192 177.915 205.873 179.606L209.719 183.452C210.972 184.705 211.963 186.133 212.663 187.678C212.663 187.707 212.692 187.736 212.692 187.765C213.537 189.718 214.003 191.933 214.003 194.235Z" stroke="#D85D07" stroke-width="5" stroke-miterlimit="10"/>
</g>
<g filter="url(#filter11_i)">
<path d="M212.692 187.62C211.963 186.075 211.002 184.647 209.749 183.394L205.902 179.547C208.903 181.471 211.293 184.297 212.692 187.62Z" stroke="#D85D07" stroke-width="5" stroke-miterlimit="10"/>
</g>
<g filter="url(#filter12_i)">
<path d="M212.604 133.94C212.604 143.528 204.853 151.28 195.265 151.28C191.885 151.28 188.708 150.289 186.027 148.628C184.337 147.549 182.822 146.18 181.569 144.606C179.266 141.663 177.897 137.962 177.897 133.94C177.897 131.929 178.246 130.035 178.858 128.228C179.441 126.509 180.315 124.935 181.365 123.507C182.618 121.846 184.191 120.389 185.94 119.282C188.621 117.592 191.797 116.601 195.207 116.601C196.751 116.601 198.267 116.805 199.724 117.184C199.811 117.213 199.899 117.213 199.957 117.242C205.727 118.874 210.244 123.42 211.876 129.161C212.4 130.676 212.604 132.279 212.604 133.94Z" stroke="#D85D07" stroke-width="5" stroke-miterlimit="10"/>
</g>
<g filter="url(#filter13_i)">
<path d="M167.639 152.678L165.249 158.886L164.521 160.751L159.916 172.728L159.887 172.786L159.101 174.855L155.05 185.376L154.729 186.192C154.38 184.152 153.651 182.199 152.573 180.392C151.611 178.76 150.358 177.274 148.814 175.992C145.725 173.398 142.024 172.087 138.294 171.941C136.283 171.883 134.272 172.145 132.349 172.757C130.425 173.369 128.589 174.331 126.958 175.613L136.079 151.862L136.895 149.735L139.838 142.042C139.867 141.925 139.925 141.838 139.955 141.721C139.955 141.721 139.955 141.721 139.955 141.692C140.771 139.681 141.994 137.962 143.481 136.563C146.57 133.678 150.795 132.162 155.05 132.541C156.39 132.658 157.702 132.949 159.013 133.474C159.421 133.649 159.858 133.824 160.237 134.028C161.315 134.552 162.306 135.193 163.209 135.951C164.812 137.291 166.065 138.923 166.969 140.759C168.863 144.344 169.183 148.657 167.639 152.678Z" stroke="#D85D07" stroke-width="5" stroke-miterlimit="10" stroke-linecap="round" stroke-linejoin="round"/>
</g>
<g filter="url(#filter14_i)">
<path d="M130.717 205.134L95.7472 208.165C87.6167 208.864 80.3605 202.803 79.6611 194.672C78.9617 186.541 85.0232 179.285 93.1536 178.586L126.958 175.642C126.054 176.371 125.18 177.187 124.422 178.119C118.274 185.463 119.206 196.391 126.55 202.54C127.861 203.619 129.26 204.464 130.717 205.134Z" stroke="#D85D07" stroke-width="5" stroke-miterlimit="10" stroke-linecap="round" stroke-linejoin="round"/>
</g>
<g filter="url(#filter15_i)">
<path d="M148.347 202.948L148.143 203.473L148.085 203.619L147.91 203.648L147.327 203.706C147.677 203.444 148.027 203.211 148.347 202.948Z" stroke="#D85D07" stroke-width="5" stroke-miterlimit="10"/>
</g>
<g filter="url(#filter16_i)">
<path d="M154.904 191.583C154.467 194.73 153.185 197.79 150.999 200.413C150.183 201.375 149.309 202.22 148.348 202.977C148.027 203.24 147.706 203.473 147.357 203.706C142.432 206.999 136.137 207.553 130.746 205.163C129.26 204.522 127.861 203.648 126.579 202.569C119.235 196.421 118.303 185.463 124.452 178.148C125.238 177.216 126.084 176.4 126.987 175.671H127.016L127.045 175.642C128.677 174.36 130.513 173.398 132.436 172.786C134.36 172.174 136.37 171.883 138.381 171.97C142.111 172.116 145.812 173.427 148.901 176.021C150.446 177.303 151.699 178.79 152.66 180.422C153.739 182.228 154.467 184.181 154.817 186.221C155.108 187.94 155.138 189.776 154.904 191.583Z" stroke="#D85D07" stroke-width="5" stroke-miterlimit="10"/>
</g>
<g filter="url(#filter17_i)">
<path d="M127.016 175.584L126.987 175.613H126.958C126.987 175.613 127.016 175.613 127.016 175.584Z" stroke="#D85D07" stroke-width="5" stroke-miterlimit="10"/>
</g>
<g filter="url(#filter18_i)">
<path d="M105.189 132.949C93.6198 123.216 92.1044 105.964 101.838 94.3945C105.276 90.2855 109.677 87.4296 114.427 85.9142C117.457 84.9525 120.634 84.5154 123.81 84.6319C129.697 84.8359 135.554 86.9633 140.421 91.014C142.84 93.054 144.821 95.4145 146.337 97.979C149.513 103.312 150.766 109.577 149.95 115.668C149.28 120.622 147.24 125.489 143.772 129.598C134.039 141.167 116.758 142.683 105.189 132.949Z" stroke="#D85D07" stroke-width="5" stroke-miterlimit="10"/>
</g>
<g filter="url(#filter19_i)">
<path d="M251.508 230.808C251.508 239.813 244.194 247.128 235.189 247.128C232.974 247.128 230.847 246.69 228.923 245.874C228.078 245.525 227.262 245.088 226.505 244.621C224.902 243.601 223.474 242.319 222.308 240.833C221.405 239.696 220.676 238.414 220.123 237.074C219.307 235.15 218.87 233.023 218.87 230.808C218.87 228.914 219.19 227.107 219.773 225.446C220.997 221.949 223.387 218.976 226.446 217.024C228.982 215.421 231.983 214.489 235.189 214.489C236.996 214.489 238.744 214.78 240.376 215.334C245.213 216.966 249.031 220.783 250.663 225.621C251.217 227.253 251.508 228.972 251.508 230.808Z" stroke="#D85D07" stroke-width="5" stroke-miterlimit="10"/>
</g>
<g filter="url(#filter20_i)">
<path d="M206.31 194.177C206.31 199.743 201.822 204.231 196.256 204.231C194.274 204.231 192.438 203.677 190.894 202.686C189.903 202.074 189.029 201.258 188.329 200.355C186.989 198.635 186.202 196.508 186.202 194.177C186.202 193.011 186.406 191.904 186.756 190.854C187.514 188.698 188.971 186.862 190.865 185.667C192.409 184.676 194.274 184.123 196.256 184.123C201.822 184.123 206.31 188.61 206.31 194.177Z" stroke="#D85D07" stroke-width="5" stroke-miterlimit="10"/>
</g>
<g filter="url(#filter21_i)">
<path d="M205.29 134.261C205.29 139.827 200.802 144.315 195.236 144.315C193.254 144.315 191.418 143.761 189.874 142.77C188.883 142.158 188.009 141.342 187.309 140.439C185.969 138.719 185.182 136.592 185.182 134.261C185.182 133.095 185.386 131.988 185.736 130.939C186.493 128.782 187.951 126.946 189.845 125.751C191.389 124.76 193.254 124.207 195.236 124.207C200.773 124.207 205.29 128.695 205.29 134.261Z" stroke="#D85D07" stroke-width="5" stroke-miterlimit="10"/>
</g>
<g filter="url(#filter22_i)">
<path d="M147.415 189.514C147.415 195.08 142.927 199.568 137.361 199.568C135.38 199.568 133.544 199.014 131.999 198.023C131.008 197.411 130.134 196.595 129.435 195.692C128.094 193.973 127.307 191.845 127.307 189.514C127.307 188.348 127.511 187.241 127.861 186.192C128.619 184.035 130.076 182.199 131.97 181.004C133.514 180.014 135.38 179.46 137.361 179.46C142.927 179.46 147.415 183.977 147.415 189.514Z" stroke="#D85D07" stroke-width="5" stroke-miterlimit="10"/>
</g>
<g filter="url(#filter23_i)">
<path d="M245.301 231.129C245.301 236.695 240.813 241.183 235.247 241.183C233.266 241.183 231.43 240.629 229.885 239.638C228.894 239.026 228.02 238.21 227.321 237.307C225.98 235.587 225.193 233.46 225.193 231.129C225.193 229.963 225.397 228.855 225.747 227.806C226.505 225.65 227.962 223.814 229.856 222.619C231.4 221.628 233.266 221.075 235.247 221.075C240.813 221.075 245.301 225.562 245.301 231.129Z" stroke="#D85D07" stroke-width="5" stroke-miterlimit="10"/>
</g>
</g>
<defs>
<filter id="filter0_i" x="195.563" y="185.12" width="47.3134" height="59.454" filterUnits="userSpaceOnUse" color-interpolation-filters="sRGB">
<feFlood flood-opacity="0" result="BackgroundImageFix"/>
<feBlend mode="normal" in="SourceGraphic" in2="BackgroundImageFix" result="shape"/>
<feColorMatrix in="SourceAlpha" type="matrix" values="0 0 0 0 0 0 0 0 0 0 0 0 0 0 0 0 0 0 127 0" result="hardAlpha"/>
<feOffset dy="5"/>
<feGaussianBlur stdDeviation="5.5"/>
<feComposite in2="hardAlpha" operator="arithmetic" k2="-1" k3="1"/>
<feColorMatrix type="matrix" values="0 0 0 0 0 0 0 0 0 0 0 0 0 0 0 0 0 0 0.25 0"/>
<feBlend mode="normal" in2="shape" result="effect1_innerShadow"/>
</filter>
<filter id="filter1_i" x="226.394" y="223.121" width="53.5825" height="57.8074" filterUnits="userSpaceOnUse" color-interpolation-filters="sRGB">
<feFlood flood-opacity="0" result="BackgroundImageFix"/>
<feBlend mode="normal" in="SourceGraphic" in2="BackgroundImageFix" result="shape"/>
<feColorMatrix in="SourceAlpha" type="matrix" values="0 0 0 0 0 0 0 0 0 0 0 0 0 0 0 0 0 0 127 0" result="hardAlpha"/>
<feOffset dy="5"/>
<feGaussianBlur stdDeviation="5.5"/>
<feComposite in2="hardAlpha" operator="arithmetic" k2="-1" k3="1"/>
<feColorMatrix type="matrix" values="0 0 0 0 0 0 0 0 0 0 0 0 0 0 0 0 0 0 0.25 0"/>
<feBlend mode="normal" in2="shape" result="effect1_innerShadow"/>
</filter>
<filter id="filter2_i" x="143.821" y="118.435" width="100.086" height="68.6854" filterUnits="userSpaceOnUse" color-interpolation-filters="sRGB">
<feFlood flood-opacity="0" result="BackgroundImageFix"/>
<feBlend mode="normal" in="SourceGraphic" in2="BackgroundImageFix" result="shape"/>
<feColorMatrix in="SourceAlpha" type="matrix" values="0 0 0 0 0 0 0 0 0 0 0 0 0 0 0 0 0 0 127 0" result="hardAlpha"/>
<feOffset dy="5"/>
<feGaussianBlur stdDeviation="5.5"/>
<feComposite in2="hardAlpha" operator="arithmetic" k2="-1" k3="1"/>
<feColorMatrix type="matrix" values="0 0 0 0 0 0 0 0 0 0 0 0 0 0 0 0 0 0 0.25 0"/>
<feBlend mode="normal" in2="shape" result="effect1_innerShadow"/>
</filter>
<filter id="filter3_i" x="186.801" y="114.092" width="20.0163" height="13.052" filterUnits="userSpaceOnUse" color-interpolation-filters="sRGB">
<feFlood flood-opacity="0" result="BackgroundImageFix"/>
<feBlend mode="normal" in="SourceGraphic" in2="BackgroundImageFix" result="shape"/>
<feColorMatrix in="SourceAlpha" type="matrix" values="0 0 0 0 0 0 0 0 0 0 0 0 0 0 0 0 0 0 127 0" result="hardAlpha"/>
<feOffset dy="5"/>
<feGaussianBlur stdDeviation="5.5"/>
<feComposite in2="hardAlpha" operator="arithmetic" k2="-1" k3="1"/>
<feColorMatrix type="matrix" values="0 0 0 0 0 0 0 0 0 0 0 0 0 0 0 0 0 0 0.25 0"/>
<feBlend mode="normal" in2="shape" result="effect1_innerShadow"/>
</filter>
<filter id="filter4_i" x="133.077" y="126.987" width="13.2253" height="34.3658" filterUnits="userSpaceOnUse" color-interpolation-filters="sRGB">
<feFlood flood-opacity="0" result="BackgroundImageFix"/>
<feBlend mode="normal" in="SourceGraphic" in2="BackgroundImageFix" result="shape"/>
<feColorMatrix in="SourceAlpha" type="matrix" values="0 0 0 0 0 0 0 0 0 0 0 0 0 0 0 0 0 0 127 0" result="hardAlpha"/>
<feOffset dy="5"/>
<feGaussianBlur stdDeviation="5.5"/>
<feComposite in2="hardAlpha" operator="arithmetic" k2="-1" k3="1"/>
<feColorMatrix type="matrix" values="0 0 0 0 0 0 0 0 0 0 0 0 0 0 0 0 0 0 0.25 0"/>
<feBlend mode="normal" in2="shape" result="effect1_innerShadow"/>
</filter>
<filter id="filter5_i" x="156.63" y="138.23" width="52.0926" height="62.4556" filterUnits="userSpaceOnUse" color-interpolation-filters="sRGB">
<feFlood flood-opacity="0" result="BackgroundImageFix"/>
<feBlend mode="normal" in="SourceGraphic" in2="BackgroundImageFix" result="shape"/>
<feColorMatrix in="SourceAlpha" type="matrix" values="0 0 0 0 0 0 0 0 0 0 0 0 0 0 0 0 0 0 127 0" result="hardAlpha"/>
<feOffset dy="5"/>
<feGaussianBlur stdDeviation="5.5"/>
<feComposite in2="hardAlpha" operator="arithmetic" k2="-1" k3="1"/>
<feColorMatrix type="matrix" values="0 0 0 0 0 0 0 0 0 0 0 0 0 0 0 0 0 0 0.25 0"/>
<feBlend mode="normal" in2="shape" result="effect1_innerShadow"/>
</filter>
<filter id="filter6_i" x="210.404" y="186.68" width="6.15279" height="14.8855" filterUnits="userSpaceOnUse" color-interpolation-filters="sRGB">
<feFlood flood-opacity="0" result="BackgroundImageFix"/>
<feBlend mode="normal" in="SourceGraphic" in2="BackgroundImageFix" result="shape"/>
<feColorMatrix in="SourceAlpha" type="matrix" values="0 0 0 0 0 0 0 0 0 0 0 0 0 0 0 0 0 0 127 0" result="hardAlpha"/>
<feOffset dy="5"/>
<feGaussianBlur stdDeviation="5.5"/>
<feComposite in2="hardAlpha" operator="arithmetic" k2="-1" k3="1"/>
<feColorMatrix type="matrix" values="0 0 0 0 0 0 0 0 0 0 0 0 0 0 0 0 0 0 0.25 0"/>
<feBlend mode="normal" in2="shape" result="effect1_innerShadow"/>
</filter>
<filter id="filter7_i" x="149.757" y="180.099" width="66.546" height="100.091" filterUnits="userSpaceOnUse" color-interpolation-filters="sRGB">
<feFlood flood-opacity="0" result="BackgroundImageFix"/>
<feBlend mode="normal" in="SourceGraphic" in2="BackgroundImageFix" result="shape"/>
<feColorMatrix in="SourceAlpha" type="matrix" values="0 0 0 0 0 0 0 0 0 0 0 0 0 0 0 0 0 0 127 0" result="hardAlpha"/>
<feOffset dy="5"/>
<feGaussianBlur stdDeviation="5.5"/>
<feComposite in2="hardAlpha" operator="arithmetic" k2="-1" k3="1"/>
<feColorMatrix type="matrix" values="0 0 0 0 0 0 0 0 0 0 0 0 0 0 0 0 0 0 0.25 0"/>
<feBlend mode="normal" in2="shape" result="effect1_innerShadow"/>
</filter>
<filter id="filter8_i" x="150.277" y="208.929" width="39.7074" height="44.6789" filterUnits="userSpaceOnUse" color-interpolation-filters="sRGB">
<feFlood flood-opacity="0" result="BackgroundImageFix"/>
<feBlend mode="normal" in="SourceGraphic" in2="BackgroundImageFix" result="shape"/>
<feColorMatrix in="SourceAlpha" type="matrix" values="0 0 0 0 0 0 0 0 0 0 0 0 0 0 0 0 0 0 127 0" result="hardAlpha"/>
<feOffset dy="5"/>
<feGaussianBlur stdDeviation="5.5"/>
<feComposite in2="hardAlpha" operator="arithmetic" k2="-1" k3="1"/>
<feColorMatrix type="matrix" values="0 0 0 0 0 0 0 0 0 0 0 0 0 0 0 0 0 0 0.25 0"/>
<feBlend mode="normal" in2="shape" result="effect1_innerShadow"/>
</filter>
<filter id="filter9_i" x="157.038" y="216.418" width="25.1076" height="30.1079" filterUnits="userSpaceOnUse" color-interpolation-filters="sRGB">
<feFlood flood-opacity="0" result="BackgroundImageFix"/>
<feBlend mode="normal" in="SourceGraphic" in2="BackgroundImageFix" result="shape"/>
<feColorMatrix in="SourceAlpha" type="matrix" values="0 0 0 0 0 0 0 0 0 0 0 0 0 0 0 0 0 0 127 0" result="hardAlpha"/>
<feOffset dy="5"/>
<feGaussianBlur stdDeviation="5.5"/>
<feComposite in2="hardAlpha" operator="arithmetic" k2="-1" k3="1"/>
<feColorMatrix type="matrix" values="0 0 0 0 0 0 0 0 0 0 0 0 0 0 0 0 0 0 0.25 0"/>
<feBlend mode="normal" in2="shape" result="effect1_innerShadow"/>
</filter>
<filter id="filter10_i" x="176.796" y="174.425" width="39.7075" height="44.6789" filterUnits="userSpaceOnUse" color-interpolation-filters="sRGB">
<feFlood flood-opacity="0" result="BackgroundImageFix"/>
<feBlend mode="normal" in="SourceGraphic" in2="BackgroundImageFix" result="shape"/>
<feColorMatrix in="SourceAlpha" type="matrix" values="0 0 0 0 0 0 0 0 0 0 0 0 0 0 0 0 0 0 127 0" result="hardAlpha"/>
<feOffset dy="5"/>
<feGaussianBlur stdDeviation="5.5"/>
<feComposite in2="hardAlpha" operator="arithmetic" k2="-1" k3="1"/>
<feColorMatrix type="matrix" values="0 0 0 0 0 0 0 0 0 0 0 0 0 0 0 0 0 0 0.25 0"/>
<feBlend mode="normal" in2="shape" result="effect1_innerShadow"/>
</filter>
<filter id="filter11_i" x="187.794" y="164.975" width="27.2017" height="28.7112" filterUnits="userSpaceOnUse" color-interpolation-filters="sRGB">
<feFlood flood-opacity="0" result="BackgroundImageFix"/>
<feBlend mode="normal" in="SourceGraphic" in2="BackgroundImageFix" result="shape"/>
<feColorMatrix in="SourceAlpha" type="matrix" values="0 0 0 0 0 0 0 0 0 0 0 0 0 0 0 0 0 0 127 0" result="hardAlpha"/>
<feOffset dy="5"/>
<feGaussianBlur stdDeviation="5.5"/>
<feComposite in2="hardAlpha" operator="arithmetic" k2="-1" k3="1"/>
<feColorMatrix type="matrix" values="0 0 0 0 0 0 0 0 0 0 0 0 0 0 0 0 0 0 0.25 0"/>
<feBlend mode="normal" in2="shape" result="effect1_innerShadow"/>
</filter>
<filter id="filter12_i" x="175.397" y="114.101" width="39.7074" height="44.6789" filterUnits="userSpaceOnUse" color-interpolation-filters="sRGB">
<feFlood flood-opacity="0" result="BackgroundImageFix"/>
<feBlend mode="normal" in="SourceGraphic" in2="BackgroundImageFix" result="shape"/>
<feColorMatrix in="SourceAlpha" type="matrix" values="0 0 0 0 0 0 0 0 0 0 0 0 0 0 0 0 0 0 127 0" result="hardAlpha"/>
<feOffset dy="5"/>
<feGaussianBlur stdDeviation="5.5"/>
<feComposite in2="hardAlpha" operator="arithmetic" k2="-1" k3="1"/>
<feColorMatrix type="matrix" values="0 0 0 0 0 0 0 0 0 0 0 0 0 0 0 0 0 0 0.25 0"/>
<feBlend mode="normal" in2="shape" result="effect1_innerShadow"/>
</filter>
<filter id="filter13_i" x="124.457" y="129.984" width="46.6627" height="63.7078" filterUnits="userSpaceOnUse" color-interpolation-filters="sRGB">
<feFlood flood-opacity="0" result="BackgroundImageFix"/>
<feBlend mode="normal" in="SourceGraphic" in2="BackgroundImageFix" result="shape"/>
<feColorMatrix in="SourceAlpha" type="matrix" values="0 0 0 0 0 0 0 0 0 0 0 0 0 0 0 0 0 0 127 0" result="hardAlpha"/>
<feOffset dy="5"/>
<feGaussianBlur stdDeviation="5.5"/>
<feComposite in2="hardAlpha" operator="arithmetic" k2="-1" k3="1"/>
<feColorMatrix type="matrix" values="0 0 0 0 0 0 0 0 0 0 0 0 0 0 0 0 0 0 0.25 0"/>
<feBlend mode="normal" in2="shape" result="effect1_innerShadow"/>
</filter>
<filter id="filter14_i" x="77.1062" y="173.142" width="56.111" height="42.5775" filterUnits="userSpaceOnUse" color-interpolation-filters="sRGB">
<feFlood flood-opacity="0" result="BackgroundImageFix"/>
<feBlend mode="normal" in="SourceGraphic" in2="BackgroundImageFix" result="shape"/>
<feColorMatrix in="SourceAlpha" type="matrix" values="0 0 0 0 0 0 0 0 0 0 0 0 0 0 0 0 0 0 127 0" result="hardAlpha"/>
<feOffset dy="5"/>
<feGaussianBlur stdDeviation="5.5"/>
<feComposite in2="hardAlpha" operator="arithmetic" k2="-1" k3="1"/>
<feColorMatrix type="matrix" values="0 0 0 0 0 0 0 0 0 0 0 0 0 0 0 0 0 0 0.25 0"/>
<feBlend mode="normal" in2="shape" result="effect1_innerShadow"/>
</filter>
<filter id="filter15_i" x="138.655" y="194.992" width="15.4693" height="17.0942" filterUnits="userSpaceOnUse" color-interpolation-filters="sRGB">
<feFlood flood-opacity="0" result="BackgroundImageFix"/>
<feBlend mode="normal" in="SourceGraphic" in2="BackgroundImageFix" result="shape"/>
<feColorMatrix in="SourceAlpha" type="matrix" values="0 0 0 0 0 0 0 0 0 0 0 0 0 0 0 0 0 0 127 0" result="hardAlpha"/>
<feOffset dy="5"/>
<feGaussianBlur stdDeviation="5.5"/>
<feComposite in2="hardAlpha" operator="arithmetic" k2="-1" k3="1"/>
<feColorMatrix type="matrix" values="0 0 0 0 0 0 0 0 0 0 0 0 0 0 0 0 0 0 0.25 0"/>
<feBlend mode="normal" in2="shape" result="effect1_innerShadow"/>
</filter>
<filter id="filter16_i" x="117.891" y="169.455" width="39.6692" height="44.677" filterUnits="userSpaceOnUse" color-interpolation-filters="sRGB">
<feFlood flood-opacity="0" result="BackgroundImageFix"/>
<feBlend mode="normal" in="SourceGraphic" in2="BackgroundImageFix" result="shape"/>
<feColorMatrix in="SourceAlpha" type="matrix" values="0 0 0 0 0 0 0 0 0 0 0 0 0 0 0 0 0 0 127 0" result="hardAlpha"/>
<feOffset dy="5"/>
<feGaussianBlur stdDeviation="5.5"/>
<feComposite in2="hardAlpha" operator="arithmetic" k2="-1" k3="1"/>
<feColorMatrix type="matrix" values="0 0 0 0 0 0 0 0 0 0 0 0 0 0 0 0 0 0 0.25 0"/>
<feBlend mode="normal" in2="shape" result="effect1_innerShadow"/>
</filter>
<filter id="filter17_i" x="124.516" y="169.551" width="5" height="13.5622" filterUnits="userSpaceOnUse" color-interpolation-filters="sRGB">
<feFlood flood-opacity="0" result="BackgroundImageFix"/>
<feBlend mode="normal" in="SourceGraphic" in2="BackgroundImageFix" result="shape"/>
<feColorMatrix in="SourceAlpha" type="matrix" values="0 0 0 0 0 0 0 0 0 0 0 0 0 0 0 0 0 0 127 0" result="hardAlpha"/>
<feOffset dy="5"/>
<feGaussianBlur stdDeviation="5.5"/>
<feComposite in2="hardAlpha" operator="arithmetic" k2="-1" k3="1"/>
<feColorMatrix type="matrix" values="0 0 0 0 0 0 0 0 0 0 0 0 0 0 0 0 0 0 0.25 0"/>
<feBlend mode="normal" in2="shape" result="effect1_innerShadow"/>
</filter>
<filter id="filter18_i" x="92.9207" y="82.1135" width="59.7718" height="64.7528" filterUnits="userSpaceOnUse" color-interpolation-filters="sRGB">
<feFlood flood-opacity="0" result="BackgroundImageFix"/>
<feBlend mode="normal" in="SourceGraphic" in2="BackgroundImageFix" result="shape"/>
<feColorMatrix in="SourceAlpha" type="matrix" values="0 0 0 0 0 0 0 0 0 0 0 0 0 0 0 0 0 0 127 0" result="hardAlpha"/>
<feOffset dy="5"/>
<feGaussianBlur stdDeviation="5.5"/>
<feComposite in2="hardAlpha" operator="arithmetic" k2="-1" k3="1"/>
<feColorMatrix type="matrix" values="0 0 0 0 0 0 0 0 0 0 0 0 0 0 0 0 0 0 0.25 0"/>
<feBlend mode="normal" in2="shape" result="effect1_innerShadow"/>
</filter>
<filter id="filter19_i" x="216.37" y="211.989" width="37.6384" height="42.639" filterUnits="userSpaceOnUse" color-interpolation-filters="sRGB">
<feFlood flood-opacity="0" result="BackgroundImageFix"/>
<feBlend mode="normal" in="SourceGraphic" in2="BackgroundImageFix" result="shape"/>
<feColorMatrix in="SourceAlpha" type="matrix" values="0 0 0 0 0 0 0 0 0 0 0 0 0 0 0 0 0 0 127 0" result="hardAlpha"/>
<feOffset dy="5"/>
<feGaussianBlur stdDeviation="5.5"/>
<feComposite in2="hardAlpha" operator="arithmetic" k2="-1" k3="1"/>
<feColorMatrix type="matrix" values="0 0 0 0 0 0 0 0 0 0 0 0 0 0 0 0 0 0 0.25 0"/>
<feBlend mode="normal" in2="shape" result="effect1_innerShadow"/>
</filter>
<filter id="filter20_i" x="183.702" y="181.623" width="25.1076" height="30.1079" filterUnits="userSpaceOnUse" color-interpolation-filters="sRGB">
<feFlood flood-opacity="0" result="BackgroundImageFix"/>
<feBlend mode="normal" in="SourceGraphic" in2="BackgroundImageFix" result="shape"/>
<feColorMatrix in="SourceAlpha" type="matrix" values="0 0 0 0 0 0 0 0 0 0 0 0 0 0 0 0 0 0 127 0" result="hardAlpha"/>
<feOffset dy="5"/>
<feGaussianBlur stdDeviation="5.5"/>
<feComposite in2="hardAlpha" operator="arithmetic" k2="-1" k3="1"/>
<feColorMatrix type="matrix" values="0 0 0 0 0 0 0 0 0 0 0 0 0 0 0 0 0 0 0.25 0"/>
<feBlend mode="normal" in2="shape" result="effect1_innerShadow"/>
</filter>
<filter id="filter21_i" x="182.682" y="121.707" width="25.1076" height="30.108" filterUnits="userSpaceOnUse" color-interpolation-filters="sRGB">
<feFlood flood-opacity="0" result="BackgroundImageFix"/>
<feBlend mode="normal" in="SourceGraphic" in2="BackgroundImageFix" result="shape"/>
<feColorMatrix in="SourceAlpha" type="matrix" values="0 0 0 0 0 0 0 0 0 0 0 0 0 0 0 0 0 0 127 0" result="hardAlpha"/>
<feOffset dy="5"/>
<feGaussianBlur stdDeviation="5.5"/>
<feComposite in2="hardAlpha" operator="arithmetic" k2="-1" k3="1"/>
<feColorMatrix type="matrix" values="0 0 0 0 0 0 0 0 0 0 0 0 0 0 0 0 0 0 0.25 0"/>
<feBlend mode="normal" in2="shape" result="effect1_innerShadow"/>
</filter>
<filter id="filter22_i" x="124.807" y="176.96" width="25.1076" height="30.1079" filterUnits="userSpaceOnUse" color-interpolation-filters="sRGB">
<feFlood flood-opacity="0" result="BackgroundImageFix"/>
<feBlend mode="normal" in="SourceGraphic" in2="BackgroundImageFix" result="shape"/>
<feColorMatrix in="SourceAlpha" type="matrix" values="0 0 0 0 0 0 0 0 0 0 0 0 0 0 0 0 0 0 127 0" result="hardAlpha"/>
<feOffset dy="5"/>
<feGaussianBlur stdDeviation="5.5"/>
<feComposite in2="hardAlpha" operator="arithmetic" k2="-1" k3="1"/>
<feColorMatrix type="matrix" values="0 0 0 0 0 0 0 0 0 0 0 0 0 0 0 0 0 0 0.25 0"/>
<feBlend mode="normal" in2="shape" result="effect1_innerShadow"/>
</filter>
<filter id="filter23_i" x="222.693" y="218.575" width="25.1076" height="30.108" filterUnits="userSpaceOnUse" color-interpolation-filters="sRGB">
<feFlood flood-opacity="0" result="BackgroundImageFix"/>
<feBlend mode="normal" in="SourceGraphic" in2="BackgroundImageFix" result="shape"/>
<feColorMatrix in="SourceAlpha" type="matrix" values="0 0 0 0 0 0 0 0 0 0 0 0 0 0 0 0 0 0 127 0" result="hardAlpha"/>
<feOffset dy="5"/>
<feGaussianBlur stdDeviation="5.5"/>
<feComposite in2="hardAlpha" operator="arithmetic" k2="-1" k3="1"/>
<feColorMatrix type="matrix" values="0 0 0 0 0 0 0 0 0 0 0 0 0 0 0 0 0 0 0.25 0"/>
<feBlend mode="normal" in2="shape" result="effect1_innerShadow"/>
</filter>
<clipPath id="clip0">
<rect width="201.076" height="192.046" fill="white" transform="translate(78 83)"/>
</clipPath>
</defs>
</svg>
