<svg width="86" height="86" viewBox="0 0 86 86" fill="none" xmlns="http://www.w3.org/2000/svg">
<path d="M49.7339 85.4221H35.737C16.0816 85.4221 0 69.3496 0 49.7055V35.7165C0 16.0724 16.0816 0 35.737 0H49.7339C69.3893 0 85.4709 16.0724 85.4709 35.7165V49.7055C85.4709 69.3496 69.3893 85.4221 49.7339 85.4221Z" fill="#D96C27"/>
<g filter="url(#filter0_i)">
<path d="M43.3727 54L41.5094 47.8828H32.1403L30.277 54H24.4059L33.4762 28.1953H40.1383L49.2438 54H43.3727ZM40.2086 43.3125C38.486 37.7695 37.5133 34.6348 37.2907 33.9082C37.0797 33.1816 36.9274 32.6074 36.8336 32.1855C36.4469 33.6855 35.3395 37.3945 33.5114 43.3125H40.2086ZM51.8454 29.2676C51.8454 27.5215 52.818 26.6484 54.7633 26.6484C56.7086 26.6484 57.6813 27.5215 57.6813 29.2676C57.6813 30.0996 57.4352 30.75 56.943 31.2188C56.4626 31.6758 55.736 31.9043 54.7633 31.9043C52.818 31.9043 51.8454 31.0254 51.8454 29.2676ZM57.4352 54H52.0739V34.3477H57.4352V54Z" fill="#CB5B13"/>
</g>
<defs>
<filter id="filter0_i" x="24.4059" y="26.6484" width="33.2754" height="31.3516" filterUnits="userSpaceOnUse" color-interpolation-filters="sRGB">
<feFlood flood-opacity="0" result="BackgroundImageFix"/>
<feBlend mode="normal" in="SourceGraphic" in2="BackgroundImageFix" result="shape"/>
<feColorMatrix in="SourceAlpha" type="matrix" values="0 0 0 0 0 0 0 0 0 0 0 0 0 0 0 0 0 0 127 0" result="hardAlpha"/>
<feOffset dy="4"/>
<feGaussianBlur stdDeviation="2"/>
<feComposite in2="hardAlpha" operator="arithmetic" k2="-1" k3="1"/>
<feColorMatrix type="matrix" values="0 0 0 0 0 0 0 0 0 0 0 0 0 0 0 0 0 0 0.25 0"/>
<feBlend mode="normal" in2="shape" result="effect1_innerShadow"/>
</filter>
</defs>
</svg>
