<svg width="86" height="86" viewBox="0 0 86 86" fill="none" xmlns="http://www.w3.org/2000/svg">
<path d="M49.7339 85.4221H35.737C16.0816 85.4221 0 69.3496 0 49.7055V35.7165C0 16.0724 16.0816 0 35.737 0H49.7339C69.3893 0 85.4709 16.0724 85.4709 35.7165V49.7055C85.4709 69.3496 69.3893 85.4221 49.7339 85.4221Z" fill="#2CBCDE"/>
<g filter="url(#filter0_i)">
<path d="M30.7254 40.3945H32.5183C34.1941 40.3945 35.448 40.0664 36.28 39.4102C37.1121 38.7422 37.5281 37.7754 37.5281 36.5098C37.5281 35.2324 37.1765 34.2891 36.4734 33.6797C35.782 33.0703 34.6922 32.7656 33.2039 32.7656H30.7254V40.3945ZM43.03 36.3164C43.03 39.082 42.1629 41.1973 40.4285 42.6621C38.7058 44.127 36.2507 44.8594 33.0632 44.8594H30.7254V54H25.2761V28.3008H33.4851C36.6023 28.3008 38.9695 28.9746 40.5867 30.3223C42.2156 31.6582 43.03 33.6562 43.03 36.3164ZM61.1707 48.1641C61.1707 50.1797 60.4675 51.7148 59.0613 52.7695C57.6668 53.8242 55.575 54.3516 52.7859 54.3516C51.3562 54.3516 50.1375 54.252 49.1297 54.0527C48.1218 53.8652 47.1785 53.584 46.2996 53.209V48.7793C47.2957 49.248 48.4148 49.6406 49.657 49.957C50.9109 50.2734 52.0125 50.4316 52.9617 50.4316C54.907 50.4316 55.8797 49.8691 55.8797 48.7441C55.8797 48.3223 55.7507 47.9824 55.4929 47.7246C55.2351 47.4551 54.7898 47.1562 54.157 46.8281C53.5242 46.4883 52.6804 46.0957 51.6257 45.6504C50.114 45.0176 49.0007 44.4316 48.2859 43.8926C47.5828 43.3535 47.0672 42.7383 46.739 42.0469C46.4226 41.3438 46.2644 40.4824 46.2644 39.4629C46.2644 37.7168 46.9382 36.3691 48.2859 35.4199C49.6453 34.459 51.5672 33.9785 54.0515 33.9785C56.4187 33.9785 58.7214 34.4941 60.9597 35.5254L59.3425 39.3926C58.3582 38.9707 57.4382 38.625 56.5828 38.3555C55.7273 38.0859 54.8543 37.9512 53.9636 37.9512C52.3816 37.9512 51.5906 38.3789 51.5906 39.2344C51.5906 39.7148 51.8425 40.1309 52.3464 40.4824C52.8621 40.834 53.9812 41.3555 55.7039 42.0469C57.239 42.668 58.364 43.248 59.0789 43.7871C59.7937 44.3262 60.3211 44.9473 60.6609 45.6504C61.0007 46.3535 61.1707 47.1914 61.1707 48.1641Z" fill="#19ADD0"/>
</g>
<defs>
<filter id="filter0_i" x="25.2761" y="28.3008" width="35.8945" height="30.0508" filterUnits="userSpaceOnUse" color-interpolation-filters="sRGB">
<feFlood flood-opacity="0" result="BackgroundImageFix"/>
<feBlend mode="normal" in="SourceGraphic" in2="BackgroundImageFix" result="shape"/>
<feColorMatrix in="SourceAlpha" type="matrix" values="0 0 0 0 0 0 0 0 0 0 0 0 0 0 0 0 0 0 127 0" result="hardAlpha"/>
<feOffset dy="4"/>
<feGaussianBlur stdDeviation="2"/>
<feComposite in2="hardAlpha" operator="arithmetic" k2="-1" k3="1"/>
<feColorMatrix type="matrix" values="0 0 0 0 0 0 0 0 0 0 0 0 0 0 0 0 0 0 0.25 0"/>
<feBlend mode="normal" in2="shape" result="effect1_innerShadow"/>
</filter>
</defs>
</svg>
